<?xml version="1.0" encoding="UTF-8"?> <svg xmlns="http://www.w3.org/2000/svg" id="Layer_1" data-name="Layer 1" viewBox="0 0 548.32 477.67"><path d="M437.3,296.82H73.79a73.8,73.8,0,0,1,0-147.59H84.88c1-49.61,49.48-84.8,97.33-69.51C211.74-2.95,318-27.32,380.49,35.22a119.77,119.77,0,0,1,27.79,43.41c70.87-19.15,140,34.38,140,107.17A111,111,0,0,1,437.3,296.82Z" style="fill:#fff"></path><path d="M141.3,404.92h18.75q-4.14,15.75-15.75,24-11.62,8.64-29.25,8.63-21.37,0-33.38-13.88-12-13.5-12-38.62,0-24,11.63-37.5,12-13.87,33.37-13.88,22.5,0,34.88,13.5a51.55,51.55,0,0,1,9.75,19.13H133.05a22.29,22.29,0,0,0-3.75-5.63q-4.88-5.25-13.88-5.25a18.27,18.27,0,0,0-13.5,5.25q-6.75,7.51-6.75,24.75t6.75,24.38q4.88,6,14.63,6a21.21,21.21,0,0,0,10.87-2.63,5.05,5.05,0,0,0,2.06-1.31l2.07-2.06a16.45,16.45,0,0,1,3-3Q136.8,404.93,141.3,404.92Z" style="fill:#fff"></path><path d="M171.06,306.67h13.5a12.59,12.59,0,0,1,9,3.57,11.69,11.69,0,0,1,3.75,8.81V435.67H171.06Z" style="fill:#fff"></path><path d="M219.94,426.67q-7.87-6.75-11.25-18.18a83.77,83.77,0,0,1-3.37-23.82,75.16,75.16,0,0,1,2.81-20.25,41.7,41.7,0,0,1,8.81-16.87,38.9,38.9,0,0,1,25.13-13.31q15.36-2.07,27.75,2.43a38.29,38.29,0,0,1,21,19.5q6.36,12.38,6.37,28.88a71.66,71.66,0,0,1-2.62,20.62,53.32,53.32,0,0,1-6.75,14.63q-9,12.38-22.88,15.37a51.1,51.1,0,0,1-24.94.57Q227.45,433.42,219.94,426.67Zm18-66q-7.87,8.64-7.12,25.69t6.37,23.81c1.5,2,4.13,3.69,7.88,5.07a17.89,17.89,0,0,0,11.43.37q5.82-1.68,10.32-8.44t4.87-21.75q0-13.5-4.31-20.25t-9.94-8.62a18.25,18.25,0,0,0-11.25-.19Q240.57,358.06,237.94,360.67Z" style="fill:#fff"></path><path d="M394.08,335.92v58.5q0,26.64-13.88,34.88a58.36,58.36,0,0,1-30.37,8.25,60.32,60.32,0,0,1-29.44-9q-13.32-8.25-13.31-34.13v-58.5h26.25v63.75q0,9,5.25,13.13a18.87,18.87,0,0,0,12,4.12,19.63,19.63,0,0,0,12.18-4.12q5.44-4.12,5.44-13.13v-51a12.62,12.62,0,0,1,3.56-9,12.16,12.16,0,0,1,9.19-3.75Z" style="fill:#fff"></path><path d="M470,306.3h12.75a12,12,0,0,1,9,3.94,12.46,12.46,0,0,1,3.75,8.81v73.12q0,26.64-15.37,36a63,63,0,0,1-33.38,9.38,59.1,59.1,0,0,1-19.12-3.19,31.42,31.42,0,0,1-15-10.31q-10.89-13.87-10.88-37.88,0-23.62,10.88-37.87,11.25-14.62,28.87-14.63a35,35,0,0,1,16.5,3.75,35.64,35.64,0,0,1,12,11.63Zm-42.75,78.75q0,15,5.63,22.87T449,415.8q10.13,0,15.75-7.88Q470,400,470,385.05q0-13.5-5.62-21.38-6-7.5-16.13-7.5a17.89,17.89,0,0,0-15.37,7.88Q427.22,371.55,427.21,385.05Z" style="fill:#fff"></path><path d="M107.29,127.11h13.5a12.62,12.62,0,0,1,9,3.56,11.69,11.69,0,0,1,3.75,8.82V256.11H107.29Z" style="fill:#3a3f52"></path><path d="M213.18,225.36h18.75q-4.12,15.75-15.75,24Q204.56,258,186.93,258q-21.37,0-33.38-13.88-12-13.5-12-38.62,0-24,11.63-37.5,12-13.87,33.37-13.88,22.5,0,34.88,13.5,12,13.88,12,38.63v4.12a6.41,6.41,0,0,1-.38,2.63H168.18q.36,11.63,5.62,17.25,4.88,6,14.63,6a21.21,21.21,0,0,0,10.87-2.63,5.15,5.15,0,0,0,2.07-1.31l2.06-2.06c.25-.75,1.18-1.75,2.81-3S210.18,225.36,213.18,225.36Zm-45-29.25h38.25q-.75-10.12-5.25-15-4.87-5.25-13.88-5.25a18.27,18.27,0,0,0-13.5,5.25Q168.55,186.38,168.18,196.11Z" style="fill:#3a3f52"></path><path d="M307.06,252a46.27,46.27,0,0,1-16.68,5.06,150.79,150.79,0,0,1-15.57.94,39.24,39.24,0,0,1-23.62-7.32q-10.12-7.3-10.13-24.18,0-15.75,9.19-22.5t23.44-9a21.71,21.71,0,0,0,4.5-.57c1.74-.37,3.75-.68,6-.93q16.5-2.25,16.5-9.75,0-5.62-5.81-7.32a38.83,38.83,0,0,0-10.69-1.68,27.31,27.31,0,0,0-9.38,1.5,10.21,10.21,0,0,0-6,5.62H243.69a28.85,28.85,0,0,1,10.5-19.12q10.13-8.62,28.87-8.63,21,0,31.5,7.13,10.88,7.5,10.88,21v34.12q0,15-5.44,23.44T307.06,252Zm-6-46.13a70.82,70.82,0,0,1-14.62,4.88l-8.63,1.87q-6.75,1.89-9.75,4.88a15.26,15.26,0,0,0-2.62,8.25,12.16,12.16,0,0,0,3.37,9q3.38,3,9.75,3,10.5,0,16.5-6t6-16.5Z" style="fill:#3a3f52"></path><path d="M335,256.11V207.74q0-14.62,4.31-24.57a40.64,40.64,0,0,1,11.81-15.93A46.46,46.46,0,0,1,367.76,159a74.08,74.08,0,0,1,19.69-2.63h3.75V183h-8.63q-10.87,0-16.12,5.25t-5.25,16.5v51.37Z" style="fill:#3a3f52"></path><path d="M486.58,256.11H473.46a12.2,12.2,0,0,1-12.75-12.75v-51q0-9-5.44-13.12a19.69,19.69,0,0,0-12.19-4.13,18.9,18.9,0,0,0-12,4.13q-5.25,4.13-5.25,13.12v63.75H399.58v-58.5q0-25.5,13.32-34.12a58.21,58.21,0,0,1,29.43-9.38,56.45,56.45,0,0,1,30.38,8.63q13.86,8.63,13.87,34.87Z" style="fill:#3a3f52"></path></svg> 