<?xml version="1.0" encoding="UTF-8"?> <svg xmlns="http://www.w3.org/2000/svg" id="Layer_1" data-name="Layer 1" viewBox="0 0 1016.31 296.82"><path d="M437.3,296.82H73.79a73.8,73.8,0,0,1,0-147.59H84.88c1-49.61,49.48-84.8,97.33-69.51C211.74-2.95,318-27.32,380.49,35.22a119.77,119.77,0,0,1,27.79,43.41c70.87-19.15,140,34.38,140,107.17A111,111,0,0,1,437.3,296.82Z" style="fill:#fff"></path><path d="M662.15,225.36H680.9q-4.14,15.75-15.75,24Q653.53,258,635.9,258q-21.37,0-33.38-13.88-12-13.5-12-38.62,0-24,11.63-37.5,12-13.87,33.37-13.88,22.5,0,34.88,13.5a51.55,51.55,0,0,1,9.75,19.13H653.9a22.29,22.29,0,0,0-3.75-5.63q-4.87-5.25-13.88-5.25a18.27,18.27,0,0,0-13.5,5.25Q616,188.63,616,205.86t6.75,24.38q4.88,6,14.63,6a21.21,21.21,0,0,0,10.87-2.63,5.15,5.15,0,0,0,2.07-1.31l2.06-2.06a16.45,16.45,0,0,1,3-3Q657.65,225.37,662.15,225.36Z" style="fill:#fff"></path><path d="M691.91,127.11h13.5a12.62,12.62,0,0,1,9,3.56,11.73,11.73,0,0,1,3.75,8.82V256.11H691.91Z" style="fill:#fff"></path><path d="M740.79,247.11q-7.87-6.75-11.25-18.19a83.65,83.65,0,0,1-3.37-23.81A75.56,75.56,0,0,1,729,184.86,41.82,41.82,0,0,1,737.79,168a39,39,0,0,1,25.13-13.32q15.38-2.05,27.75,2.44a38.26,38.26,0,0,1,21,19.5Q818,189,818,205.49a71.66,71.66,0,0,1-2.62,20.62,52.74,52.74,0,0,1-6.75,14.63q-9,12.38-22.88,15.37a50.94,50.94,0,0,1-24.93.56Q748.29,253.87,740.79,247.11Zm18-66q-7.87,8.64-7.12,25.69T758,230.61q2.25,3,7.88,5.06a17.92,17.92,0,0,0,11.44.38q5.8-1.7,10.31-8.44t4.87-21.75q0-13.5-4.31-20.25T778.29,177A18.18,18.18,0,0,0,767,176.8C763.29,177.92,760.54,179.37,758.79,181.11Z" style="fill:#fff"></path><path d="M914.93,156.36v58.5q0,26.64-13.88,34.88A58.33,58.33,0,0,1,870.68,258a60.36,60.36,0,0,1-29.44-9q-13.32-8.25-13.31-34.13v-58.5h26.25v63.75q0,9,5.25,13.13a18.89,18.89,0,0,0,12,4.12,19.63,19.63,0,0,0,12.18-4.12q5.45-4.12,5.44-13.13v-51a12.62,12.62,0,0,1,3.56-9,12.16,12.16,0,0,1,9.19-3.75Z" style="fill:#fff"></path><path d="M990.81,126.74h12.75a12,12,0,0,1,9,3.93,12.5,12.5,0,0,1,3.75,8.82v73.12q0,26.64-15.37,36A63,63,0,0,1,967.56,258a59.1,59.1,0,0,1-19.12-3.19,31.47,31.47,0,0,1-15-10.31q-10.89-13.87-10.88-37.88,0-23.62,10.88-37.87,11.25-14.62,28.87-14.63a35,35,0,0,1,16.5,3.75,35.64,35.64,0,0,1,12,11.63Zm-42.75,78.75q0,15,5.63,22.87t16.12,7.88q10.13,0,15.75-7.88,5.25-7.87,5.25-22.87,0-13.5-5.62-21.38-6-7.5-16.13-7.5a17.89,17.89,0,0,0-15.37,7.88Q948.07,192,948.06,205.49Z" style="fill:#fff"></path><path d="M107.29,127.11h13.5a12.62,12.62,0,0,1,9,3.56,11.69,11.69,0,0,1,3.75,8.82V256.11H107.29Z" style="fill:#3a3f52"></path><path d="M213.18,225.36h18.75q-4.12,15.75-15.75,24Q204.56,258,186.93,258q-21.37,0-33.38-13.88-12-13.5-12-38.62,0-24,11.63-37.5,12-13.87,33.37-13.88,22.5,0,34.88,13.5,12,13.88,12,38.63v4.12a6.41,6.41,0,0,1-.38,2.63H168.18q.36,11.63,5.62,17.25,4.88,6,14.63,6a21.21,21.21,0,0,0,10.87-2.63,5.15,5.15,0,0,0,2.07-1.31l2.06-2.06c.25-.75,1.18-1.75,2.81-3S210.18,225.36,213.18,225.36Zm-45-29.25h38.25q-.75-10.12-5.25-15-4.87-5.25-13.88-5.25a18.27,18.27,0,0,0-13.5,5.25Q168.55,186.38,168.18,196.11Z" style="fill:#3a3f52"></path><path d="M307.06,252a46.27,46.27,0,0,1-16.68,5.06,150.79,150.79,0,0,1-15.57.94,39.24,39.24,0,0,1-23.62-7.32q-10.12-7.3-10.13-24.18,0-15.75,9.19-22.5t23.44-9a21.71,21.71,0,0,0,4.5-.57q2.63-.55,6-.93,16.5-2.25,16.5-9.75,0-5.62-5.81-7.32a38.77,38.77,0,0,0-10.69-1.68,27.35,27.35,0,0,0-9.38,1.5,10.21,10.21,0,0,0-6,5.62H243.69a28.89,28.89,0,0,1,10.5-19.12q10.13-8.62,28.87-8.63,21,0,31.5,7.13,10.88,7.5,10.88,21v34.12q0,15-5.44,23.44T307.06,252Zm-6-46.13a70.61,70.61,0,0,1-14.62,4.88l-8.63,1.87q-6.75,1.89-9.75,4.88a15.26,15.26,0,0,0-2.62,8.25,12.16,12.16,0,0,0,3.37,9q3.38,3,9.75,3,10.5,0,16.5-6t6-16.5Z" style="fill:#3a3f52"></path><path d="M335,256.11V207.74q0-14.62,4.31-24.57a40.64,40.64,0,0,1,11.81-15.93A46.46,46.46,0,0,1,367.76,159a74.08,74.08,0,0,1,19.69-2.63h3.75V183h-8.63q-10.87,0-16.12,5.25t-5.25,16.5v51.37Z" style="fill:#3a3f52"></path><path d="M486.58,256.11H473.46a12.2,12.2,0,0,1-12.75-12.75v-51q0-9-5.44-13.12a19.69,19.69,0,0,0-12.19-4.13,18.9,18.9,0,0,0-12,4.13q-5.25,4.13-5.25,13.12v63.75H399.58v-58.5q0-25.5,13.32-34.12a58.21,58.21,0,0,1,29.43-9.38,56.45,56.45,0,0,1,30.38,8.63q13.86,8.63,13.87,34.87Z" style="fill:#3a3f52"></path></svg> 